<?xml version="1.0" standalone="no"?>
<!DOCTYPE svg PUBLIC "-//W3C//DTD SVG 20010904//EN"
 "http://www.w3.org/TR/2001/REC-SVG-20010904/DTD/svg10.dtd">
<svg version="1.0" xmlns="http://www.w3.org/2000/svg"
 width="942.000000pt" height="942.000000pt" viewBox="0 0 942.000000 942.000000"
 preserveAspectRatio="xMidYMid meet">
<metadata>
Created by potrace 1.11, written by Peter Selinger 2001-2013
</metadata>
<g transform="translate(0.000000,942.000000) scale(0.100000,-0.100000)"
fill="#000000" stroke="none">
<path d="M7874 9406 c-33 -23 -128 -77 -146 -83 -10 -3 -18 -9 -18 -14 0 -5
-4 -9 -9 -9 -9 0 -47 -21 -226 -125 -114 -66 -160 -92 -195 -112 -14 -8 -47
-28 -75 -44 -27 -17 -58 -33 -67 -36 -10 -3 -18 -9 -18 -14 0 -5 -4 -9 -9 -9
-9 0 -359 -199 -421 -238 -14 -9 -28 -16 -32 -15 -3 2 -12 -4 -18 -12 -7 -8
-19 -15 -26 -15 -8 0 -14 -4 -14 -10 0 -5 -4 -10 -9 -10 -5 0 -75 -39 -157
-86 -82 -48 -171 -98 -199 -113 -27 -14 -52 -28 -55 -31 -9 -10 -221 -131
-245 -140 -14 -5 -25 -14 -25 -20 0 -5 -9 -10 -19 -10 -11 0 -22 -4 -25 -9 -4
-5 -37 -27 -74 -48 -37 -21 -76 -43 -87 -50 -11 -7 -27 -16 -35 -20 -8 -4 -64
-35 -123 -70 -60 -35 -127 -74 -150 -87 -23 -13 -92 -52 -153 -88 -61 -36
-117 -68 -125 -71 -8 -4 -27 -16 -44 -26 -16 -11 -50 -30 -75 -42 -25 -13 -47
-25 -50 -29 -3 -3 -48 -30 -100 -60 -52 -29 -104 -59 -115 -66 -22 -14 -21
-15 -115 39 -25 14 -70 40 -100 56 -30 17 -62 36 -70 41 -8 5 -53 32 -100 58
-47 27 -146 84 -220 127 -143 83 -180 104 -233 134 -18 10 -88 50 -155 90 -68
39 -127 71 -132 71 -6 0 -10 5 -10 10 0 6 -4 10 -10 10 -7 0 -187 101 -320
180 -142 84 -242 140 -250 140 -6 0 -10 5 -10 10 0 6 -4 10 -9 10 -6 0 -60 29
-121 65 -61 36 -130 76 -153 89 -23 13 -82 47 -132 76 -115 68 -219 127 -270
154 -22 12 -42 23 -45 26 -6 7 -278 164 -335 194 -22 12 -42 23 -45 26 -3 3
-16 11 -29 18 -13 8 -38 22 -55 31 -17 10 -87 50 -154 90 -68 39 -127 71 -132
71 -6 0 -10 -1394 -10 -3778 l0 -3778 28 -20 c15 -11 52 -32 82 -48 30 -16 66
-37 80 -46 14 -9 32 -20 40 -24 8 -4 24 -12 35 -19 55 -33 559 -324 583 -336
15 -8 29 -17 32 -20 3 -4 24 -15 47 -26 24 -11 43 -23 43 -27 0 -5 4 -8 9 -8
5 0 45 -21 88 -47 43 -25 96 -56 118 -68 22 -11 59 -33 82 -48 24 -15 45 -27
48 -27 2 0 34 -18 70 -40 36 -22 70 -40 75 -40 6 0 10 -4 10 -8 0 -4 12 -13
28 -19 15 -7 45 -22 67 -35 22 -13 63 -37 90 -52 28 -16 58 -36 69 -45 10 -9
19 -14 20 -12 0 3 29 -12 64 -32 35 -20 67 -37 72 -37 4 0 10 -4 12 -8 1 -4
50 -34 107 -67 58 -33 130 -75 160 -93 31 -18 70 -39 86 -47 32 -17 56 -30
181 -106 45 -27 85 -49 90 -49 4 0 15 -6 23 -14 9 -7 46 -29 82 -49 37 -20
108 -61 159 -92 51 -30 96 -55 101 -55 4 0 14 -6 21 -13 7 -7 24 -18 38 -24
14 -7 48 -26 75 -42 28 -16 74 -42 102 -57 29 -16 53 -34 53 -41 0 -18 13 -16
43 7 14 11 30 20 36 20 6 0 11 5 11 10 0 6 4 10 9 10 4 0 61 30 125 68 172 99
178 102 221 125 22 12 42 24 45 27 3 3 19 12 35 21 17 9 68 38 115 66 47 27
96 56 110 64 14 8 33 21 44 29 10 8 19 13 20 11 0 -3 12 2 26 11 34 21 213
124 280 161 30 16 62 36 71 43 8 8 18 14 21 14 3 0 104 57 225 127 120 70 233
134 251 142 17 8 32 19 32 23 0 4 4 8 10 8 5 0 47 23 94 50 47 28 89 50 95 50
6 0 11 3 11 8 0 4 10 12 23 18 46 24 103 55 132 74 17 10 41 25 55 33 14 7 41
23 60 34 94 54 379 218 405 233 79 46 235 135 275 158 54 30 108 62 135 80 11
6 27 15 35 19 8 4 48 27 88 51 l72 43 0 3785 c0 2081 -1 3784 -3 3784 -1 0
-12 -6 -23 -14z"/>
</g>
</svg>
